<?xml version="1.0" encoding="utf-8"?>
<!-- Generator: Adobe Illustrator 15.0.2, SVG Export Plug-In . SVG Version: 6.00 Build 0)  -->
<!DOCTYPE svg PUBLIC "-//W3C//DTD SVG 1.0//EN" "http://www.w3.org/TR/2001/REC-SVG-20010904/DTD/svg10.dtd">
<svg version="1.0" id="SSG_Anglo-Am_Horizontal_Logo"
	 xmlns="http://www.w3.org/2000/svg" xmlns:xlink="http://www.w3.org/1999/xlink" x="0px" y="0px" width="321px" height="34px"
	 viewBox="0 0 321 34" enable-background="new 0 0 321 34" xml:space="preserve">
<rect id="bg" fill="#FFFFFF" width="321" height="34"/>
<path fill="#1E1E1E" d="M147,11.919c0.468,0.276,1.199,0.516,1.955,0.516c0.935,0,1.463-0.444,1.463-1.104
	c0-0.612-0.407-0.971-1.427-1.343c-1.343-0.479-2.194-1.188-2.194-2.351c0-1.332,1.102-2.327,2.866-2.327
	c0.875,0,1.51,0.192,1.93,0.408l-0.347,1.188c-0.3-0.156-0.863-0.384-1.619-0.384c-0.936,0-1.331,0.492-1.331,0.971
	c0,0.624,0.468,0.912,1.547,1.332c1.403,0.527,2.075,1.235,2.075,2.398c0,1.307-0.984,2.435-3.059,2.435
	c-0.863,0-1.75-0.24-2.194-0.516L147,11.919z"/>
<path fill="#1E1E1E" d="M158.711,10.552c0,2.147-1.512,3.106-2.999,3.106c-1.643,0-2.926-1.127-2.926-3.01
	c0-1.919,1.259-3.094,3.022-3.094C157.548,7.554,158.711,8.777,158.711,10.552z M154.31,10.612c0,1.127,0.563,1.979,1.451,1.979
	c0.839,0,1.427-0.815,1.427-2.003c0-0.912-0.407-1.967-1.415-1.967C154.729,8.621,154.31,9.641,154.31,10.612z"/>
<path fill="#1E1E1E" d="M159.739,9.425c0-0.672-0.023-1.235-0.048-1.739h1.285l0.071,0.875h0.036
	c0.264-0.456,0.899-1.007,1.871-1.007c1.02,0,2.075,0.66,2.075,2.506v3.466h-1.476v-3.298c0-0.839-0.312-1.475-1.115-1.475
	c-0.589,0-0.996,0.42-1.151,0.864c-0.048,0.12-0.072,0.3-0.072,0.468v3.442h-1.476V9.425z"/>
<path fill="#1E1E1E" d="M171.982,5.011v6.872c0,0.6,0.024,1.247,0.049,1.643h-1.308l-0.071-0.923h-0.024
	c-0.348,0.647-1.056,1.055-1.895,1.055c-1.403,0-2.507-1.188-2.507-2.986c-0.012-1.955,1.211-3.118,2.614-3.118
	c0.804,0,1.379,0.324,1.644,0.755h0.023V5.011H171.982z M170.508,10.12c0-0.12-0.012-0.276-0.036-0.396
	c-0.132-0.564-0.6-1.032-1.271-1.032c-0.948,0-1.476,0.84-1.476,1.919c0,1.08,0.527,1.859,1.463,1.859
	c0.6,0,1.128-0.408,1.271-1.043c0.036-0.132,0.048-0.276,0.048-0.432V10.12z"/>
<path fill="#1E1E1E" d="M174.562,11.02c0.035,1.056,0.852,1.511,1.799,1.511c0.684,0,1.163-0.108,1.619-0.264l0.216,1.007
	c-0.504,0.216-1.199,0.372-2.039,0.372c-1.895,0-3.01-1.164-3.01-2.951c0-1.619,0.983-3.142,2.854-3.142
	c1.895,0,2.519,1.559,2.519,2.842c0,0.276-0.024,0.492-0.048,0.624H174.562z M177.129,9.988c0.013-0.54-0.228-1.427-1.211-1.427
	c-0.912,0-1.296,0.828-1.355,1.427H177.129z"/>
<path fill="#1E1E1E" d="M179.694,9.568c0-0.792-0.013-1.367-0.049-1.883h1.271l0.061,1.104h0.035
	c0.288-0.815,0.972-1.235,1.607-1.235c0.145,0,0.229,0.012,0.348,0.036v1.379c-0.132-0.024-0.264-0.036-0.443-0.036
	c-0.695,0-1.188,0.443-1.319,1.115c-0.024,0.132-0.037,0.288-0.037,0.444v3.034h-1.474V9.568z"/>
<path fill="#1E1E1E" d="M184.118,12.159c0.324,0.204,0.96,0.432,1.487,0.432c0.647,0,0.936-0.276,0.936-0.66
	c0-0.396-0.24-0.587-0.96-0.852c-1.139-0.384-1.606-1.007-1.606-1.703c0-1.031,0.852-1.823,2.207-1.823
	c0.647,0,1.211,0.156,1.559,0.348l-0.3,1.032c-0.241-0.144-0.72-0.336-1.235-0.336c-0.527,0-0.815,0.264-0.815,0.624
	c0,0.372,0.275,0.54,1.02,0.815c1.067,0.372,1.547,0.912,1.559,1.775c0,1.067-0.827,1.835-2.374,1.835
	c-0.709,0-1.344-0.168-1.775-0.408L184.118,12.159z"/>
<path fill="#1E1E1E" d="M193.808,12.123c0,0.528,0.023,1.043,0.096,1.403h-1.331l-0.108-0.647h-0.035
	c-0.349,0.456-0.96,0.779-1.728,0.779c-1.176,0-1.835-0.852-1.835-1.739c0-1.463,1.308-2.219,3.466-2.207V9.617
	c0-0.384-0.155-1.02-1.188-1.02c-0.575,0-1.175,0.18-1.57,0.432l-0.288-0.959c0.431-0.264,1.188-0.516,2.11-0.516
	c1.871,0,2.411,1.188,2.411,2.471V12.123z M192.367,10.672c-1.042-0.012-2.038,0.204-2.038,1.091c0,0.576,0.372,0.84,0.839,0.84
	c0.601,0,1.021-0.384,1.164-0.804c0.035-0.108,0.035-0.216,0.035-0.324V10.672z"/>
<path fill="#1E1E1E" d="M195.266,9.425c0-0.672-0.024-1.235-0.049-1.739h1.26l0.072,0.864h0.036
	c0.275-0.456,0.803-0.996,1.799-0.996c0.767,0,1.367,0.432,1.619,1.079h0.023c0.204-0.324,0.444-0.563,0.708-0.731
	c0.336-0.228,0.707-0.348,1.199-0.348c0.959,0,1.942,0.66,1.942,2.531v3.442h-1.438V10.3c0-0.972-0.336-1.547-1.044-1.547
	c-0.504,0-0.876,0.36-1.031,0.78c-0.048,0.132-0.072,0.324-0.072,0.492v3.502h-1.438v-3.382c0-0.815-0.324-1.391-1.008-1.391
	c-0.552,0-0.924,0.432-1.067,0.828c-0.048,0.156-0.072,0.324-0.072,0.492v3.454h-1.438V9.425z"/>
<path fill="#1E1E1E" d="M205.35,9.425c0-0.672-0.023-1.235-0.049-1.739h1.261l0.071,0.864h0.035
	c0.277-0.456,0.805-0.996,1.801-0.996c0.768,0,1.367,0.432,1.619,1.079h0.023c0.203-0.324,0.444-0.563,0.708-0.731
	c0.336-0.228,0.707-0.348,1.198-0.348c0.96,0,1.944,0.66,1.944,2.531v3.442h-1.439V10.3c0-0.972-0.336-1.547-1.044-1.547
	c-0.504,0-0.875,0.36-1.031,0.78c-0.049,0.132-0.072,0.324-0.072,0.492v3.502h-1.438v-3.382c0-0.815-0.324-1.391-1.008-1.391
	c-0.552,0-0.924,0.432-1.067,0.828c-0.048,0.156-0.072,0.324-0.072,0.492v3.454h-1.439V9.425z"/>
<path fill="#1E1E1E" d="M216.381,11.02c0.037,1.056,0.853,1.511,1.8,1.511c0.684,0,1.164-0.108,1.619-0.264l0.216,1.007
	c-0.504,0.216-1.199,0.372-2.039,0.372c-1.895,0-3.01-1.164-3.01-2.951c0-1.619,0.983-3.142,2.854-3.142
	c1.895,0,2.519,1.559,2.519,2.842c0,0.276-0.025,0.492-0.048,0.624H216.381z M218.947,9.988c0.013-0.54-0.227-1.427-1.21-1.427
	c-0.912,0-1.296,0.828-1.356,1.427H218.947z"/>
<path fill="#1E1E1E" d="M221.489,5.011h1.475v8.515h-1.475V5.011z"/>
<path fill="#1E1E1E" d="M229.884,12.675c0,1.223-0.252,2.099-0.864,2.65c-0.6,0.54-1.451,0.708-2.255,0.708
	c-0.743,0-1.535-0.168-2.038-0.468l0.322-1.116c0.373,0.216,0.997,0.444,1.704,0.444c0.96,0,1.68-0.504,1.68-1.763v-0.503h-0.024
	c-0.336,0.516-0.924,0.863-1.703,0.863c-1.451,0-2.482-1.199-2.482-2.854c0-1.919,1.247-3.082,2.65-3.082
	c0.899,0,1.415,0.432,1.691,0.912h0.023l0.061-0.78h1.283c-0.024,0.396-0.048,0.875-0.048,1.679V12.675z M228.408,10.024
	c0-0.144-0.012-0.276-0.048-0.396c-0.156-0.54-0.577-0.947-1.199-0.947c-0.828,0-1.439,0.719-1.439,1.907
	c0,0.996,0.504,1.799,1.427,1.799c0.551,0,1.032-0.36,1.2-0.9c0.048-0.144,0.06-0.348,0.06-0.516V10.024z"/>
<path fill="#1E1E1E" d="M232.425,11.02c0.036,1.056,0.852,1.511,1.799,1.511c0.684,0,1.164-0.108,1.619-0.264l0.216,1.007
	c-0.504,0.216-1.199,0.372-2.039,0.372c-1.895,0-3.01-1.164-3.01-2.951c0-1.619,0.983-3.142,2.854-3.142
	c1.895,0,2.519,1.559,2.519,2.842c0,0.276-0.024,0.492-0.048,0.624H232.425z M234.991,9.988c0.012-0.54-0.228-1.427-1.211-1.427
	c-0.913,0-1.296,0.828-1.355,1.427H234.991z"/>
<path fill="#1E1E1E" d="M237.509,5.011h1.474v3.478h0.025c0.359-0.564,0.995-0.936,1.871-0.936c1.427,0,2.446,1.188,2.435,2.962
	c0,2.099-1.332,3.142-2.65,3.142c-0.756,0-1.429-0.288-1.849-1.007h-0.022l-0.072,0.875h-1.26c0.024-0.396,0.049-1.043,0.049-1.643
	V5.011z M238.982,11.116c0,0.12,0.013,0.24,0.037,0.348c0.156,0.6,0.672,1.032,1.308,1.032c0.923,0,1.487-0.732,1.487-1.919
	c0-1.032-0.492-1.871-1.476-1.871c-0.6,0-1.151,0.432-1.308,1.079c-0.023,0.108-0.049,0.24-0.049,0.384V11.116z"/>
<path fill="#1E1E1E" d="M246.093,6.055c0,0.432-0.323,0.792-0.839,0.792c-0.492,0-0.815-0.36-0.815-0.792
	c0-0.456,0.335-0.804,0.827-0.804C245.77,5.251,246.081,5.599,246.093,6.055z M244.522,13.526V7.686h1.475v5.841H244.522z"/>
<path fill="#1E1E1E" d="M248.611,11.02c0.036,1.056,0.852,1.511,1.799,1.511c0.684,0,1.163-0.108,1.619-0.264l0.216,1.007
	c-0.504,0.216-1.199,0.372-2.039,0.372c-1.895,0-3.01-1.164-3.01-2.951c0-1.619,0.983-3.142,2.854-3.142
	c1.895,0,2.519,1.559,2.519,2.842c0,0.276-0.024,0.492-0.048,0.624H248.611z M251.178,9.988c0.013-0.54-0.228-1.427-1.211-1.427
	c-0.912,0-1.296,0.828-1.355,1.427H251.178z"/>
<path fill="#1E1E1E" d="M255.493,6.187v1.499h1.403v1.104h-1.403v2.579c0,0.719,0.192,1.079,0.756,1.079
	c0.264,0,0.408-0.012,0.575-0.06l0.024,1.115c-0.216,0.084-0.611,0.156-1.067,0.156c-0.552,0-0.995-0.18-1.271-0.479
	c-0.323-0.336-0.468-0.875-0.468-1.643V8.789h-0.827V7.686h0.827V6.594L255.493,6.187z"/>
<path fill="#1E1E1E" d="M148.703,25.625l-0.695,2.29h-1.523l2.591-8.083h1.883l2.626,8.083h-1.595l-0.732-2.29H148.703z
	 M151.018,24.509l-0.637-1.99c-0.155-0.492-0.286-1.044-0.407-1.512h-0.024c-0.12,0.468-0.252,1.031-0.384,1.512l-0.624,1.99
	H151.018z"/>
<path fill="#1E1E1E" d="M154.554,23.813c0-0.672-0.024-1.235-0.049-1.739h1.284l0.071,0.875h0.036
	c0.263-0.455,0.899-1.007,1.871-1.007c1.02,0,2.075,0.66,2.075,2.507v3.466h-1.476v-3.298c0-0.84-0.312-1.476-1.115-1.476
	c-0.588,0-0.995,0.42-1.151,0.864c-0.048,0.119-0.072,0.3-0.072,0.467v3.442h-1.475V23.813z"/>
<path fill="#1E1E1E" d="M166.582,27.063c0,1.224-0.252,2.099-0.865,2.65c-0.599,0.54-1.451,0.708-2.254,0.708
	c-0.743,0-1.535-0.168-2.038-0.468l0.323-1.115c0.372,0.216,0.996,0.443,1.703,0.443c0.96,0,1.68-0.504,1.68-1.764v-0.503h-0.024
	c-0.336,0.516-0.925,0.863-1.703,0.863c-1.452,0-2.482-1.199-2.482-2.854c0-1.919,1.247-3.082,2.65-3.082
	c0.899,0,1.415,0.432,1.691,0.911h0.023l0.061-0.779h1.283c-0.024,0.396-0.048,0.875-0.048,1.68V27.063z M165.106,24.413
	c0-0.145-0.012-0.276-0.048-0.396c-0.156-0.54-0.576-0.947-1.199-0.947c-0.828,0-1.439,0.719-1.439,1.906
	c0,0.996,0.504,1.8,1.427,1.8c0.552,0,1.032-0.36,1.2-0.9c0.048-0.144,0.06-0.348,0.06-0.516V24.413z"/>
<path fill="#1E1E1E" d="M168.104,19.4h1.475v8.515h-1.475V19.4z"/>
<path fill="#1E1E1E" d="M176.629,24.94c0,2.147-1.512,3.106-2.999,3.106c-1.643,0-2.926-1.127-2.926-3.01
	c0-1.919,1.259-3.095,3.022-3.095C175.465,21.942,176.629,23.166,176.629,24.94z M172.228,25c0,1.128,0.563,1.979,1.451,1.979
	c0.839,0,1.427-0.815,1.427-2.003c0-0.912-0.407-1.967-1.415-1.967C172.646,23.01,172.228,24.029,172.228,25z"/>
<path fill="#1E1E1E" d="M182.433,26.512c0,0.528,0.023,1.044,0.096,1.403h-1.331l-0.108-0.647h-0.035
	c-0.349,0.455-0.96,0.779-1.728,0.779c-1.176,0-1.835-0.852-1.835-1.738c0-1.464,1.308-2.219,3.466-2.207v-0.096
	c0-0.384-0.156-1.02-1.188-1.02c-0.575,0-1.175,0.18-1.57,0.432l-0.288-0.96c0.432-0.264,1.187-0.516,2.11-0.516
	c1.871,0,2.411,1.188,2.411,2.471V26.512z M180.993,25.061c-1.043-0.012-2.039,0.204-2.039,1.092c0,0.575,0.372,0.84,0.84,0.84
	c0.6,0,1.02-0.385,1.163-0.805c0.036-0.107,0.036-0.215,0.036-0.323V25.061z"/>
<path fill="#1E1E1E" d="M183.895,23.813c0-0.672-0.024-1.235-0.049-1.739h1.26l0.072,0.863h0.036
	c0.275-0.455,0.803-0.995,1.799-0.995c0.768,0,1.367,0.432,1.619,1.079h0.023c0.204-0.323,0.444-0.563,0.708-0.731
	c0.336-0.228,0.707-0.348,1.199-0.348c0.959,0,1.942,0.66,1.942,2.53v3.442h-1.438v-3.226c0-0.973-0.336-1.548-1.044-1.548
	c-0.505,0-0.875,0.36-1.031,0.78c-0.048,0.131-0.073,0.323-0.073,0.491v3.502h-1.438v-3.382c0-0.816-0.324-1.392-1.008-1.392
	c-0.552,0-0.924,0.432-1.067,0.827c-0.048,0.156-0.072,0.324-0.072,0.492v3.454h-1.438V23.813z"/>
<path fill="#1E1E1E" d="M194.961,25.408c0.036,1.056,0.852,1.512,1.799,1.512c0.684,0,1.163-0.108,1.619-0.264l0.216,1.007
	c-0.504,0.216-1.199,0.372-2.039,0.372c-1.895,0-3.01-1.163-3.01-2.95c0-1.62,0.983-3.143,2.854-3.143
	c1.895,0,2.518,1.56,2.518,2.843c0,0.275-0.023,0.491-0.047,0.623H194.961z M197.527,24.377c0.013-0.539-0.228-1.428-1.211-1.428
	c-0.912,0-1.296,0.828-1.355,1.428H197.527z"/>
<path fill="#1E1E1E" d="M200.188,23.957c0-0.791-0.013-1.367-0.049-1.883h1.271l0.061,1.104h0.035
	c0.288-0.815,0.972-1.235,1.607-1.235c0.145,0,0.229,0.012,0.348,0.036v1.379c-0.132-0.023-0.264-0.035-0.444-0.035
	c-0.694,0-1.187,0.443-1.318,1.114c-0.024,0.132-0.036,0.288-0.036,0.444v3.034h-1.475V23.957z"/>
<path fill="#1E1E1E" d="M206.207,20.443c0,0.432-0.323,0.792-0.84,0.792c-0.491,0-0.814-0.36-0.814-0.792
	c0-0.456,0.335-0.804,0.827-0.804C205.884,19.64,206.195,19.987,206.207,20.443z M204.637,27.915v-5.841h1.475v5.841H204.637z"/>
<path fill="#1E1E1E" d="M209.457,24.641h0.024c0.144-0.228,0.312-0.479,0.455-0.684l1.428-1.883h1.775l-2.171,2.387l2.471,3.454
	h-1.812l-1.679-2.579l-0.492,0.588v1.991h-1.475V19.4h1.475V24.641z"/>
<path fill="#1E1E1E" d="M218.846,26.512c0,0.528,0.023,1.044,0.096,1.403h-1.331l-0.108-0.647h-0.035
	c-0.349,0.455-0.96,0.779-1.728,0.779c-1.176,0-1.835-0.852-1.835-1.738c0-1.464,1.308-2.219,3.466-2.207v-0.096
	c0-0.384-0.155-1.02-1.188-1.02c-0.574,0-1.174,0.18-1.569,0.432l-0.288-0.96c0.432-0.264,1.188-0.516,2.109-0.516
	c1.872,0,2.412,1.188,2.412,2.471V26.512z M217.406,25.061c-1.043-0.012-2.039,0.204-2.039,1.092c0,0.575,0.372,0.84,0.84,0.84
	c0.6,0,1.02-0.385,1.163-0.805c0.036-0.107,0.036-0.215,0.036-0.323V25.061z"/>
<path fill="#1E1E1E" d="M220.364,23.813c0-0.672-0.024-1.235-0.05-1.739h1.285l0.071,0.875h0.036
	c0.264-0.455,0.899-1.007,1.871-1.007c1.02,0,2.075,0.66,2.075,2.507v3.466h-1.476v-3.298c0-0.84-0.312-1.476-1.115-1.476
	c-0.588,0-0.996,0.42-1.151,0.864c-0.048,0.119-0.072,0.3-0.072,0.467v3.442h-1.475V23.813z"/>
<path fill="#1E1E1E" d="M228.805,20.443c0,0.432-0.323,0.792-0.84,0.792c-0.491,0-0.814-0.36-0.814-0.792
	c0-0.456,0.335-0.804,0.827-0.804C228.481,19.64,228.793,19.987,228.805,20.443z M227.234,27.915v-5.841h1.475v5.841H227.234z"/>
<path fill="#1E1E1E" d="M230.363,26.548c0.324,0.204,0.96,0.432,1.486,0.432c0.648,0,0.937-0.276,0.937-0.659
	c0-0.396-0.24-0.588-0.96-0.852c-1.139-0.384-1.606-1.008-1.606-1.703c0-1.031,0.852-1.823,2.207-1.823
	c0.647,0,1.211,0.155,1.559,0.348l-0.3,1.032c-0.24-0.145-0.721-0.336-1.235-0.336c-0.527,0-0.815,0.264-0.815,0.623
	c0,0.372,0.275,0.539,1.02,0.815c1.067,0.372,1.547,0.911,1.559,1.775c0,1.067-0.828,1.835-2.374,1.835
	c-0.708,0-1.344-0.168-1.775-0.408L230.363,26.548z"/>
<path fill="#1E1E1E" d="M239.657,27.735c-0.312,0.144-0.923,0.3-1.655,0.3c-1.822,0-3.01-1.176-3.01-2.986
	c0-1.751,1.199-3.106,3.25-3.106c0.54,0,1.092,0.12,1.428,0.264l-0.265,1.116c-0.239-0.12-0.587-0.229-1.115-0.229
	c-1.127,0-1.799,0.828-1.787,1.896c0,1.198,0.78,1.883,1.787,1.883c0.504,0,0.876-0.108,1.163-0.229L239.657,27.735z"/>
<path fill="#1E1E1E" d="M240.76,19.4h1.475v3.465h0.024c0.18-0.275,0.432-0.503,0.731-0.659c0.3-0.168,0.647-0.264,1.02-0.264
	c0.995,0,2.039,0.66,2.039,2.53v3.442h-1.476v-3.286c0-0.84-0.312-1.487-1.127-1.487c-0.576,0-0.984,0.384-1.151,0.827
	c-0.049,0.133-0.061,0.288-0.061,0.444v3.502h-1.475V19.4z"/>
<path fill="#1E1E1E" d="M248.529,25.408c0.036,1.056,0.852,1.512,1.799,1.512c0.684,0,1.163-0.108,1.619-0.264l0.216,1.007
	c-0.504,0.216-1.199,0.372-2.039,0.372c-1.895,0-3.01-1.163-3.01-2.95c0-1.62,0.983-3.143,2.854-3.143
	c1.895,0,2.519,1.56,2.519,2.843c0,0.275-0.024,0.491-0.048,0.623H248.529z M251.096,24.377c0.013-0.539-0.229-1.428-1.211-1.428
	c-0.912,0-1.296,0.828-1.355,1.428H251.096z"/>
<path fill="#1E1E1E" d="M253.781,23.957c0-0.791-0.013-1.367-0.049-1.883h1.271l0.061,1.104h0.036
	c0.287-0.815,0.971-1.235,1.606-1.235c0.145,0,0.229,0.012,0.348,0.036v1.379c-0.132-0.023-0.264-0.035-0.443-0.035
	c-0.695,0-1.188,0.443-1.319,1.114c-0.024,0.132-0.036,0.288-0.036,0.444v3.034h-1.475V23.957z"/>
<path fill="#1E1E1E" d="M261.011,19.832h1.463v3.717h0.036c0.191-0.311,0.396-0.6,0.588-0.875l2.123-2.842h1.811l-2.782,3.441
	l2.962,4.642h-1.727l-2.279-3.706l-0.731,0.864v2.842h-1.463V19.832z"/>
<path fill="#1E1E1E" d="M272.941,26.164c0,0.695,0.023,1.271,0.048,1.751h-1.283l-0.071-0.875h-0.037
	c-0.251,0.407-0.827,1.007-1.882,1.007c-1.056,0-2.027-0.636-2.027-2.543v-3.43h1.476v3.178c0,0.973,0.312,1.596,1.091,1.596
	c0.6,0,0.983-0.408,1.128-0.791c0.06-0.121,0.084-0.288,0.084-0.457v-3.525h1.475V26.164z"/>
<path fill="#1E1E1E" d="M274.456,19.4h1.475v8.515h-1.475V19.4z"/>
<path fill="#1E1E1E" d="M279.348,20.575v1.499h1.403v1.104h-1.403v2.578c0,0.72,0.192,1.079,0.756,1.079
	c0.264,0,0.407-0.011,0.575-0.059l0.024,1.114c-0.216,0.084-0.611,0.156-1.068,0.156c-0.551,0-0.994-0.18-1.271-0.479
	c-0.323-0.336-0.468-0.876-0.468-1.644v-2.746h-0.827v-1.104h0.827v-1.092L279.348,20.575z"/>
<path fill="#1E1E1E" d="M287.118,26.164c0,0.695,0.024,1.271,0.048,1.751h-1.283l-0.071-0.875h-0.036
	c-0.252,0.407-0.828,1.007-1.883,1.007c-1.056,0-2.027-0.636-2.027-2.543v-3.43h1.476v3.178c0,0.973,0.312,1.596,1.091,1.596
	c0.6,0,0.983-0.408,1.128-0.791c0.06-0.121,0.084-0.288,0.084-0.457v-3.525h1.475V26.164z"/>
<path fill="#1E1E1E" d="M288.629,23.957c0-0.791-0.014-1.367-0.049-1.883h1.271l0.061,1.104h0.035
	c0.287-0.815,0.971-1.235,1.607-1.235c0.145,0,0.229,0.012,0.348,0.036v1.379c-0.132-0.023-0.264-0.035-0.443-0.035
	c-0.695,0-1.188,0.443-1.319,1.114c-0.024,0.132-0.036,0.288-0.036,0.444v3.034h-1.475V23.957z"/>
<path fill="#1E1E1E" d="M293.137,23.957c0-0.791-0.013-1.367-0.049-1.883h1.271l0.061,1.104h0.036
	c0.287-0.815,0.971-1.235,1.606-1.235c0.145,0,0.229,0.012,0.348,0.036v1.379c-0.132-0.023-0.264-0.035-0.443-0.035
	c-0.695,0-1.188,0.443-1.319,1.114c-0.024,0.132-0.036,0.288-0.036,0.444v3.034h-1.475V23.957z"/>
<path fill="#1E1E1E" d="M301.975,26.512c0,0.528,0.023,1.044,0.096,1.403h-1.331l-0.108-0.647h-0.035
	c-0.349,0.455-0.961,0.779-1.729,0.779c-1.175,0-1.834-0.852-1.834-1.738c0-1.464,1.308-2.219,3.466-2.207v-0.096
	c0-0.384-0.155-1.02-1.188-1.02c-0.575,0-1.175,0.18-1.57,0.432l-0.288-0.96c0.432-0.264,1.188-0.516,2.11-0.516
	c1.87,0,2.411,1.188,2.411,2.471V26.512z M300.535,25.061c-1.043-0.012-2.039,0.204-2.039,1.092c0,0.575,0.371,0.84,0.84,0.84
	c0.6,0,1.02-0.385,1.163-0.805c0.036-0.107,0.036-0.215,0.036-0.323V25.061z"/>
<path fill="#1E1E1E" d="M308.521,26.164c0,0.695,0.024,1.271,0.048,1.751h-1.283l-0.071-0.875h-0.036
	c-0.252,0.407-0.828,1.007-1.883,1.007c-1.056,0-2.027-0.636-2.027-2.543v-3.43h1.476v3.178c0,0.973,0.312,1.596,1.091,1.596
	c0.6,0,0.983-0.408,1.128-0.791c0.06-0.121,0.084-0.288,0.084-0.457v-3.525h1.475V26.164z"/>
<path fill="#1E1E1E" d="M309.971,23.813c0-0.672-0.024-1.235-0.049-1.739h1.26l0.072,0.863h0.036
	c0.275-0.455,0.803-0.995,1.799-0.995c0.768,0,1.367,0.432,1.619,1.079h0.022c0.205-0.323,0.445-0.563,0.709-0.731
	c0.336-0.228,0.707-0.348,1.199-0.348c0.959,0,1.942,0.66,1.942,2.53v3.442h-1.438v-3.226c0-0.973-0.336-1.548-1.045-1.548
	c-0.503,0-0.874,0.36-1.031,0.78c-0.047,0.131-0.071,0.323-0.071,0.491v3.502h-1.438v-3.382c0-0.816-0.324-1.392-1.008-1.392
	c-0.552,0-0.924,0.432-1.067,0.827c-0.048,0.156-0.072,0.324-0.072,0.492v3.454h-1.438V23.813z"/>
<path fill="#1E1E1E" d="M136.41,15.271c-6.175,1.684-12.552,2.753-18.961,3.286c-3.206,0.26-6.424,0.373-9.636,0.296
	c-2.872-0.073-5.729-0.308-8.562-0.764c-0.248,0.396-0.554,0.746-0.916,1.047c3.099,0.641,6.263,1.001,9.42,1.176
	c3.269,0.178,6.544,0.161,9.81-0.005c6.534-0.348,13.039-1.236,19.432-2.773L136.41,15.271z"/>
<path fill="#1E1E1E" d="M121.731,23.426c-4.5,0.542-9.042,0.818-13.567,0.703c-2.264-0.062-4.521-0.223-6.746-0.56
	c-1.84-0.293-3.687-0.681-5.37-1.38c-0.217,0.338-0.504,0.654-0.823,0.946c1.908,0.913,3.95,1.394,5.969,1.776
	c2.289,0.416,4.597,0.645,6.906,0.773c4.618,0.249,9.24,0.098,13.838-0.323L121.731,23.426z"/>
<path fill="#1E1E1E" d="M96.687,27.038c-0.893-0.189-1.778-0.415-2.648-0.685c-0.697-0.22-1.376-0.473-2.024-0.768
	c-0.297,0.318-0.639,0.595-1.015,0.828c0.848,0.49,1.729,0.853,2.616,1.184c0.898,0.332,1.809,0.615,2.731,0.861
	c1.844,0.489,3.729,0.833,5.645,0.999l0.107-1.749C100.288,27.646,98.474,27.414,96.687,27.038z"/>
<path fill="#1E1E1E" d="M98.564,14.29c-0.192,1.265-0.85,2.481-1.814,3.322c-0.715,0.627-1.546,1.062-2.405,1.343
	c-0.134,1.525-0.878,2.993-1.999,3.997c-1.322,1.217-3.013,1.844-4.692,2.133c-0.097,0.261-0.212,0.522-0.348,0.764
	c-0.568,1.034-1.506,1.835-2.53,2.317c-0.945,0.463-1.988,0.695-2.983,0.782c-1.351,2.839-5.185,4.259-7.928,2.442
	c-0.792-0.54-1.4-1.331-1.688-2.26c-0.291-0.907-0.212-2.046,0.481-2.848c0.677-0.754,1.632-1.14,2.627-1.092
	c0.492,0.029,0.995,0.213,1.392,0.522c0.404,0.308,0.685,0.734,0.868,1.158l-0.705,0.318c-0.31-0.685-0.897-1.139-1.604-1.147
	c-0.694-0.03-1.448,0.317-1.873,0.84c-0.424,0.502-0.482,1.264-0.241,1.939c0.231,0.687,0.714,1.295,1.334,1.681
	c1.234,0.802,2.943,0.714,4.228-0.038c1.313-0.734,2.271-2.115,2.231-3.525c-0.01-0.704-0.241-1.399-0.638-2.019
	c-0.211-0.318-0.425-0.598-0.695-0.878c-0.241-0.251-0.521-0.454-0.84-0.637c-1.274-0.715-2.888-0.898-4.404-0.715
	c-3.09,0.367-5.842,2.229-7.599,4.809l-1.864-1.41c2.184-2.877,5.619-4.982,9.3-5.204c1.826-0.106,3.728,0.173,5.369,1.196
	c0.404,0.262,0.792,0.571,1.13,0.947c0.3,0.338,0.599,0.743,0.83,1.14c0.481,0.812,0.801,1.786,0.772,2.771
	c-0.01,0.329-0.049,0.656-0.126,0.966c0.764-0.136,1.479-0.357,2.144-0.704c0.851-0.435,1.555-1.102,1.97-1.922
	c0.426-0.812,0.57-1.768,0.444-2.684c-0.115-0.938-0.53-1.74-1.139-2.482c-1.217-1.459-3.043-2.376-4.944-2.743
	c-1.911-0.367-3.921-0.213-5.853,0.261c-1.941,0.463-3.813,1.246-5.609,2.182c-1.777,0.937-3.516,2.096-5.33,3.187
	c-3.583,2.221-7.464,4.21-11.511,5.61l-0.878-2.589c3.911-1.226,7.589-2.973,11.191-5.059c1.806-1.014,3.592-2.145,5.562-3.071
	c1.949-0.937,4.007-1.689,6.169-2.124c2.145-0.425,4.414-0.531,6.606-0.01c2.181,0.502,4.286,1.651,5.696,3.486
	c0.349,0.454,0.655,0.945,0.888,1.496c0.242,0.541,0.367,1.141,0.435,1.709c0.049,0.521,0.039,1.053-0.047,1.574
	c1.37-0.348,2.663-0.945,3.629-1.892c1.121-1.062,1.691-2.607,1.517-4.114c-0.164-1.516-0.984-2.907-2.144-3.959
	c-1.159-1.071-2.606-1.844-4.123-2.375c-3.061-1.063-6.431-1.197-9.656-0.706c-1.621,0.252-3.215,0.658-4.761,1.208
	c-1.525,0.531-3.071,1.255-4.576,1.97c-3.022,1.458-5.987,3.109-9.067,4.606c-3.071,1.506-6.275,2.857-9.599,3.871
	c-6.585,2.037-13.519,2.752-20.325,2.733l0.319-3.108c6.526,0.183,13.044-0.33,19.291-2.068c3.197-0.878,6.306-2.075,9.357-3.466
	s6.064-2.955,9.191-4.355c1.574-0.695,3.129-1.372,4.81-1.932c1.661-0.541,3.381-0.946,5.118-1.177
	c3.467-0.445,7.078-0.231,10.409,1.004c1.66,0.627,3.254,1.506,4.568,2.771C93.225,14.28,94.2,16,94.345,17.882
	c0.629-0.26,1.197-0.617,1.682-1.071c0.762-0.705,1.226-1.632,1.38-2.694c0.146-1.072-0.096-2.067-0.531-3.032
	c-0.444-0.966-0.937-1.68-1.728-2.54c-0.705-0.763-1.4-1.274-2-1.661c-0.89-0.58-1.825-1.111-3.118-1.584
	c-2.095-0.781-4.433-1.285-7.33-1.285c-4.527,0-8.525,1.082-13.094,2.955c-4.2,1.719-8.206,4.22-12.465,6.171
	c-4.249,1.979-8.7,3.621-13.287,4.74c-4.596,1.12-9.26,1.778-13.954,2.125c-9.365,0.666-18.885,0.097-28.089-2.096l0.733-3.022
	c8.827,2.279,18.049,3.013,27.191,2.54c4.569-0.252,9.135-0.802,13.587-1.805c4.451-0.995,8.778-2.501,12.978-4.355
	c4.22-1.834,8.847-4.577,13.268-6.306c4.829-1.892,8.458-2.761,13.238-2.761c2.733,0,5.476,0.638,7.725,1.516
	c1.382,0.531,2.347,1.081,3.486,1.883c0.686,0.483,1.438,1.14,2.105,1.834c0.85,0.898,1.525,1.952,1.979,3.11
	C98.575,11.722,98.768,13.006,98.564,14.29z"/>
</svg>
