<?xml version="1.0" encoding="utf-8"?>
<!-- Generator: Adobe Illustrator 15.0.2, SVG Export Plug-In . SVG Version: 6.00 Build 0)  -->
<svg version="1.2" baseProfile="tiny" id="SSG_Anglo-Am_Primary_Logo"
	 xmlns="http://www.w3.org/2000/svg" xmlns:xlink="http://www.w3.org/1999/xlink" x="0px" y="0px" width="175px" height="75px"
	 viewBox="0 0 175 75" xml:space="preserve">
<rect id="bg" fill="#FFFFFF" width="175" height="75"/>
<path fill="#1E1E1E" d="M1.804,54.802c0.468,0.276,1.2,0.516,1.955,0.516c0.936,0,1.464-0.444,1.464-1.104
	c0-0.611-0.408-0.971-1.428-1.343c-1.343-0.48-2.194-1.188-2.194-2.352c0-1.331,1.103-2.326,2.866-2.326
	c0.875,0,1.511,0.192,1.931,0.408L6.05,49.789c-0.3-0.156-0.863-0.385-1.619-0.385c-0.936,0-1.331,0.492-1.331,0.972
	c0,0.624,0.468,0.911,1.547,1.331c1.403,0.528,2.075,1.235,2.075,2.398c0,1.308-0.983,2.436-3.059,2.436
	c-0.863,0-1.751-0.24-2.194-0.516L1.804,54.802z"/>
<path fill="#1E1E1E" d="M13.515,53.435c0,2.146-1.512,3.106-2.999,3.106c-1.643,0-2.926-1.128-2.926-3.011
	c0-1.919,1.259-3.095,3.022-3.095C12.352,50.436,13.515,51.659,13.515,53.435z M9.113,53.494c0,1.128,0.563,1.979,1.451,1.979
	c0.839,0,1.427-0.814,1.427-2.002c0-0.912-0.407-1.967-1.415-1.967C9.532,51.504,9.113,52.522,9.113,53.494z"/>
<path fill="#1E1E1E" d="M14.544,52.307c0-0.671-0.024-1.234-0.049-1.738h1.284l0.071,0.875h0.036
	c0.264-0.455,0.899-1.008,1.871-1.008c1.02,0,2.075,0.66,2.075,2.507v3.466h-1.476V53.11c0-0.839-0.312-1.475-1.115-1.475
	c-0.588,0-0.996,0.42-1.151,0.863c-0.048,0.12-0.072,0.3-0.072,0.468v3.441h-1.475V52.307z"/>
<path fill="#1E1E1E" d="M26.787,47.894v6.872c0,0.6,0.023,1.247,0.048,1.643h-1.308l-0.071-0.923h-0.024
	c-0.348,0.647-1.056,1.056-1.895,1.056c-1.403,0-2.507-1.188-2.507-2.986c-0.012-1.955,1.211-3.119,2.614-3.119
	c0.804,0,1.379,0.324,1.644,0.756h0.023v-3.298H26.787z M25.312,53.002c0-0.119-0.012-0.275-0.036-0.395
	c-0.132-0.564-0.6-1.032-1.271-1.032c-0.948,0-1.476,0.84-1.476,1.919c0,1.08,0.527,1.858,1.463,1.858
	c0.6,0,1.128-0.407,1.271-1.042c0.036-0.133,0.048-0.276,0.048-0.433V53.002z"/>
<path fill="#1E1E1E" d="M29.366,53.902c0.036,1.055,0.852,1.511,1.799,1.511c0.684,0,1.163-0.107,1.619-0.264L33,56.156
	c-0.504,0.217-1.199,0.373-2.039,0.373c-1.895,0-3.01-1.164-3.01-2.951c0-1.619,0.983-3.143,2.854-3.143
	c1.895,0,2.519,1.56,2.519,2.843c0,0.276-0.024,0.491-0.048,0.624H29.366z M31.933,52.871c0.013-0.54-0.228-1.428-1.211-1.428
	c-0.912,0-1.296,0.828-1.355,1.428H31.933z"/>
<path fill="#1E1E1E" d="M34.498,52.451c0-0.792-0.013-1.367-0.049-1.883h1.271l0.061,1.104h0.035
	c0.288-0.816,0.972-1.236,1.607-1.236c0.145,0,0.229,0.013,0.348,0.037v1.379c-0.132-0.024-0.264-0.036-0.443-0.036
	c-0.695,0-1.188,0.443-1.319,1.115c-0.024,0.132-0.036,0.288-0.036,0.444v3.033h-1.475V52.451z"/>
<path fill="#1E1E1E" d="M38.922,55.041c0.324,0.204,0.96,0.432,1.487,0.432c0.647,0,0.936-0.275,0.936-0.659
	c0-0.396-0.24-0.587-0.96-0.852c-1.139-0.384-1.606-1.007-1.606-1.703c0-1.031,0.852-1.823,2.207-1.823
	c0.647,0,1.211,0.156,1.559,0.348l-0.3,1.032c-0.24-0.144-0.72-0.336-1.235-0.336c-0.527,0-0.815,0.264-0.815,0.623
	c0,0.372,0.275,0.54,1.02,0.816c1.067,0.372,1.547,0.911,1.559,1.774c0,1.068-0.827,1.836-2.374,1.836
	c-0.708,0-1.344-0.168-1.775-0.408L38.922,55.041z"/>
<path fill="#1E1E1E" d="M48.611,55.006c0,0.527,0.023,1.043,0.096,1.402h-1.331l-0.108-0.646h-0.035
	c-0.349,0.455-0.96,0.779-1.728,0.779c-1.176,0-1.835-0.852-1.835-1.739c0-1.463,1.308-2.219,3.466-2.207v-0.096
	c0-0.384-0.155-1.02-1.188-1.02c-0.575,0-1.175,0.18-1.57,0.432l-0.288-0.959c0.432-0.265,1.188-0.517,2.11-0.517
	c1.871,0,2.411,1.188,2.411,2.471V55.006z M47.172,53.555c-1.043-0.012-2.039,0.203-2.039,1.091c0,0.575,0.372,0.84,0.84,0.84
	c0.6,0,1.02-0.384,1.163-0.804c0.036-0.107,0.036-0.216,0.036-0.324V53.555z"/>
<path fill="#1E1E1E" d="M50.069,52.307c0-0.671-0.024-1.234-0.049-1.738h1.26l0.072,0.863h0.036
	c0.275-0.456,0.803-0.996,1.799-0.996c0.768,0,1.367,0.433,1.619,1.08h0.023c0.204-0.324,0.444-0.563,0.708-0.732
	c0.336-0.227,0.707-0.348,1.199-0.348c0.959,0,1.942,0.66,1.942,2.531v3.441h-1.438v-3.226c0-0.972-0.336-1.547-1.044-1.547
	c-0.504,0-0.875,0.359-1.031,0.779c-0.048,0.132-0.072,0.324-0.072,0.491v3.502h-1.438v-3.382c0-0.815-0.324-1.391-1.008-1.391
	c-0.552,0-0.924,0.431-1.067,0.827c-0.048,0.156-0.072,0.324-0.072,0.492v3.453h-1.438V52.307z"/>
<path fill="#1E1E1E" d="M60.154,52.307c0-0.671-0.024-1.234-0.049-1.738h1.26l0.072,0.863h0.035c0.276-0.456,0.804-0.996,1.8-0.996
	c0.768,0,1.367,0.433,1.619,1.08h0.023c0.204-0.324,0.444-0.563,0.708-0.732c0.336-0.227,0.707-0.348,1.199-0.348
	c0.959,0,1.943,0.66,1.943,2.531v3.441h-1.439v-3.226c0-0.972-0.336-1.547-1.044-1.547c-0.504,0-0.875,0.359-1.031,0.779
	c-0.048,0.132-0.072,0.324-0.072,0.491v3.502H63.74v-3.382c0-0.815-0.324-1.391-1.008-1.391c-0.552,0-0.924,0.431-1.067,0.827
	c-0.048,0.156-0.072,0.324-0.072,0.492v3.453h-1.438V52.307z"/>
<path fill="#1E1E1E" d="M71.186,53.902c0.036,1.055,0.852,1.511,1.799,1.511c0.684,0,1.164-0.107,1.619-0.264l0.216,1.007
	c-0.504,0.217-1.199,0.373-2.039,0.373c-1.895,0-3.01-1.164-3.01-2.951c0-1.619,0.983-3.143,2.854-3.143
	c1.895,0,2.519,1.56,2.519,2.843c0,0.276-0.024,0.491-0.048,0.624H71.186z M73.752,52.871c0.012-0.54-0.228-1.428-1.211-1.428
	c-0.912,0-1.296,0.828-1.355,1.428H73.752z"/>
<path fill="#1E1E1E" d="M76.293,47.894h1.475v8.515h-1.475V47.894z"/>
<path fill="#1E1E1E" d="M84.688,55.557c0,1.224-0.252,2.1-0.864,2.65c-0.6,0.541-1.451,0.709-2.255,0.709
	c-0.743,0-1.535-0.168-2.038-0.468l0.323-1.116c0.372,0.216,0.996,0.444,1.703,0.444c0.96,0,1.68-0.505,1.68-1.764V55.51h-0.024
	c-0.336,0.516-0.924,0.863-1.703,0.863c-1.451,0-2.482-1.199-2.482-2.854c0-1.919,1.247-3.083,2.65-3.083
	c0.899,0,1.415,0.433,1.691,0.912h0.023l0.061-0.779h1.283c-0.024,0.396-0.048,0.875-0.048,1.679V55.557z M83.212,52.906
	c0-0.144-0.012-0.275-0.048-0.396c-0.156-0.54-0.576-0.947-1.199-0.947c-0.828,0-1.439,0.72-1.439,1.907
	c0,0.995,0.504,1.799,1.427,1.799c0.552,0,1.032-0.359,1.2-0.9c0.048-0.143,0.06-0.348,0.06-0.516V52.906z"/>
<path fill="#1E1E1E" d="M87.229,53.902c0.036,1.055,0.852,1.511,1.799,1.511c0.684,0,1.164-0.107,1.619-0.264l0.216,1.007
	c-0.504,0.217-1.199,0.373-2.039,0.373c-1.895,0-3.01-1.164-3.01-2.951c0-1.619,0.983-3.143,2.854-3.143
	c1.895,0,2.519,1.56,2.519,2.843c0,0.276-0.024,0.491-0.048,0.624H87.229z M89.795,52.871c0.012-0.54-0.228-1.428-1.211-1.428
	c-0.912,0-1.296,0.828-1.355,1.428H89.795z"/>
<path fill="#1E1E1E" d="M92.312,47.894h1.475v3.479h0.024c0.359-0.564,0.995-0.937,1.871-0.937c1.427,0,2.446,1.188,2.435,2.963
	c0,2.099-1.332,3.143-2.65,3.143c-0.756,0-1.428-0.288-1.848-1.008h-0.023l-0.072,0.875h-1.26c0.024-0.396,0.049-1.043,0.049-1.643
	V47.894z M93.787,53.998c0,0.12,0.012,0.24,0.036,0.348c0.156,0.6,0.672,1.031,1.308,1.031c0.923,0,1.487-0.731,1.487-1.918
	c0-1.032-0.492-1.871-1.476-1.871c-0.6,0-1.151,0.431-1.308,1.078c-0.023,0.109-0.048,0.24-0.048,0.385V53.998z"/>
<path fill="#1E1E1E" d="M100.896,48.937c0,0.433-0.323,0.792-0.839,0.792c-0.492,0-0.815-0.359-0.815-0.792
	c0-0.456,0.335-0.804,0.827-0.804C100.573,48.133,100.885,48.48,100.896,48.937z M99.326,56.408v-5.84h1.475v5.84H99.326z"/>
<path fill="#1E1E1E" d="M103.415,53.902c0.036,1.055,0.852,1.511,1.799,1.511c0.684,0,1.163-0.107,1.619-0.264l0.216,1.007
	c-0.504,0.217-1.199,0.373-2.039,0.373c-1.895,0-3.01-1.164-3.01-2.951c0-1.619,0.983-3.143,2.854-3.143
	c1.895,0,2.519,1.56,2.519,2.843c0,0.276-0.024,0.491-0.048,0.624H103.415z M105.981,52.871c0.013-0.54-0.228-1.428-1.211-1.428
	c-0.912,0-1.296,0.828-1.355,1.428H105.981z"/>
<path fill="#1E1E1E" d="M110.297,49.068v1.5h1.403v1.104h-1.403v2.578c0,0.719,0.192,1.079,0.756,1.079
	c0.264,0,0.408-0.012,0.575-0.06l0.024,1.115c-0.216,0.084-0.611,0.156-1.067,0.156c-0.552,0-0.995-0.18-1.271-0.48
	c-0.323-0.336-0.468-0.875-0.468-1.643v-2.746h-0.827v-1.104h0.827v-1.092L110.297,49.068z"/>
<path fill="#1E1E1E" d="M3.507,68.507l-0.695,2.291H1.288l2.591-8.084h1.883l2.626,8.084H6.793l-0.731-2.291H3.507z M5.821,67.391
	L5.186,65.4c-0.155-0.492-0.287-1.043-0.407-1.511H4.754c-0.12,0.468-0.252,1.03-0.384,1.511l-0.623,1.99H5.821z"/>
<path fill="#1E1E1E" d="M9.357,66.695c0-0.672-0.024-1.235-0.049-1.738h1.284l0.071,0.875H10.7c0.264-0.455,0.899-1.008,1.871-1.008
	c1.02,0,2.075,0.66,2.075,2.507v3.467h-1.476v-3.299c0-0.839-0.312-1.476-1.115-1.476c-0.588,0-0.995,0.42-1.151,0.864
	c-0.048,0.12-0.072,0.3-0.072,0.468v3.442H9.357V66.695z"/>
<path fill="#1E1E1E" d="M21.386,69.945c0,1.224-0.252,2.099-0.864,2.651c-0.6,0.539-1.451,0.708-2.255,0.708
	c-0.743,0-1.535-0.169-2.038-0.469l0.323-1.115c0.372,0.216,0.996,0.444,1.703,0.444c0.96,0,1.68-0.505,1.68-1.764v-0.504H19.91
	c-0.336,0.517-0.924,0.863-1.703,0.863c-1.451,0-2.482-1.199-2.482-2.854c0-1.918,1.247-3.082,2.65-3.082
	c0.899,0,1.415,0.432,1.691,0.912h0.023l0.061-0.779h1.283c-0.024,0.396-0.048,0.875-0.048,1.679V69.945z M19.91,67.295
	c0-0.144-0.012-0.275-0.048-0.396c-0.156-0.539-0.576-0.947-1.199-0.947c-0.828,0-1.439,0.72-1.439,1.907
	c0,0.995,0.504,1.799,1.427,1.799c0.552,0,1.032-0.36,1.2-0.9c0.048-0.144,0.06-0.348,0.06-0.515V67.295z"/>
<path fill="#1E1E1E" d="M22.907,62.282h1.475v8.516h-1.475V62.282z"/>
<path fill="#1E1E1E" d="M31.433,67.823c0,2.146-1.512,3.106-2.999,3.106c-1.643,0-2.926-1.128-2.926-3.011
	c0-1.919,1.259-3.095,3.022-3.095C30.27,64.824,31.433,66.048,31.433,67.823z M27.031,67.883c0,1.128,0.563,1.979,1.451,1.979
	c0.839,0,1.427-0.814,1.427-2.002c0-0.912-0.407-1.967-1.415-1.967C27.45,65.893,27.031,66.912,27.031,67.883z"/>
<path fill="#1E1E1E" d="M37.236,69.394c0,0.528,0.023,1.044,0.096,1.404h-1.331l-0.108-0.647h-0.035
	c-0.349,0.455-0.96,0.779-1.728,0.779c-1.176,0-1.835-0.853-1.835-1.739c0-1.463,1.308-2.219,3.466-2.207v-0.096
	c0-0.384-0.155-1.02-1.188-1.02c-0.575,0-1.175,0.18-1.57,0.432l-0.288-0.96c0.432-0.263,1.188-0.516,2.11-0.516
	c1.871,0,2.411,1.188,2.411,2.471V69.394z M35.797,67.943c-1.043-0.012-2.039,0.203-2.039,1.091c0,0.576,0.372,0.84,0.84,0.84
	c0.6,0,1.02-0.384,1.163-0.804c0.036-0.107,0.036-0.216,0.036-0.323V67.943z"/>
<path fill="#1E1E1E" d="M38.698,66.695c0-0.672-0.024-1.235-0.049-1.738h1.26l0.072,0.863h0.036
	c0.275-0.456,0.803-0.996,1.799-0.996c0.768,0,1.367,0.432,1.619,1.08h0.023c0.204-0.324,0.444-0.564,0.708-0.731
	c0.336-0.228,0.707-0.349,1.199-0.349c0.959,0,1.942,0.66,1.942,2.531v3.442H45.87v-3.227c0-0.972-0.336-1.548-1.044-1.548
	c-0.504,0-0.875,0.36-1.031,0.78c-0.048,0.132-0.072,0.323-0.072,0.491v3.503h-1.438v-3.383c0-0.815-0.324-1.392-1.008-1.392
	c-0.552,0-0.924,0.433-1.067,0.828c-0.048,0.156-0.072,0.324-0.072,0.492v3.454h-1.438V66.695z"/>
<path fill="#1E1E1E" d="M49.765,68.291c0.036,1.056,0.852,1.511,1.799,1.511c0.684,0,1.163-0.108,1.619-0.264l0.216,1.007
	c-0.504,0.216-1.199,0.373-2.039,0.373c-1.895,0-3.01-1.164-3.01-2.951c0-1.619,0.983-3.143,2.854-3.143
	c1.895,0,2.519,1.56,2.519,2.843c0,0.276-0.024,0.492-0.048,0.624H49.765z M52.331,67.26c0.013-0.54-0.228-1.428-1.211-1.428
	c-0.912,0-1.296,0.828-1.355,1.428H52.331z"/>
<path fill="#1E1E1E" d="M54.992,66.84c0-0.792-0.013-1.367-0.049-1.883h1.271l0.061,1.104h0.035
	c0.288-0.816,0.972-1.236,1.607-1.236c0.145,0,0.229,0.012,0.348,0.037v1.378c-0.132-0.023-0.264-0.035-0.443-0.035
	c-0.695,0-1.188,0.443-1.319,1.115c-0.024,0.132-0.036,0.288-0.036,0.444v3.034h-1.475V66.84z"/>
<path fill="#1E1E1E" d="M61.011,63.326c0,0.432-0.323,0.791-0.839,0.791c-0.492,0-0.815-0.359-0.815-0.791
	c0-0.457,0.335-0.805,0.827-0.805C60.688,62.521,60.999,62.869,61.011,63.326z M59.44,70.798v-5.841h1.475v5.841H59.44z"/>
<path fill="#1E1E1E" d="M64.261,67.522h0.024c0.144-0.228,0.312-0.479,0.455-0.683l1.428-1.883h1.775l-2.171,2.387l2.471,3.454
	h-1.812l-1.679-2.579l-0.492,0.588v1.991h-1.475v-8.516h1.475V67.522z"/>
<path fill="#1E1E1E" d="M73.649,69.394c0,0.528,0.023,1.044,0.096,1.404h-1.331l-0.108-0.647h-0.035
	c-0.349,0.455-0.96,0.779-1.728,0.779c-1.176,0-1.835-0.853-1.835-1.739c0-1.463,1.308-2.219,3.466-2.207v-0.096
	c0-0.384-0.155-1.02-1.188-1.02c-0.575,0-1.175,0.18-1.57,0.432l-0.288-0.96c0.432-0.263,1.188-0.516,2.11-0.516
	c1.871,0,2.411,1.188,2.411,2.471V69.394z M72.21,67.943c-1.043-0.012-2.039,0.203-2.039,1.091c0,0.576,0.372,0.84,0.84,0.84
	c0.6,0,1.02-0.384,1.163-0.804c0.036-0.107,0.036-0.216,0.036-0.323V67.943z"/>
<path fill="#1E1E1E" d="M75.168,66.695c0-0.672-0.024-1.235-0.049-1.738h1.284l0.071,0.875h0.036
	c0.264-0.455,0.899-1.008,1.871-1.008c1.02,0,2.075,0.66,2.075,2.507v3.467h-1.476v-3.299c0-0.839-0.312-1.476-1.115-1.476
	c-0.588,0-0.995,0.42-1.151,0.864c-0.048,0.12-0.072,0.3-0.072,0.468v3.442h-1.475V66.695z"/>
<path fill="#1E1E1E" d="M83.608,63.326c0,0.432-0.323,0.791-0.839,0.791c-0.492,0-0.815-0.359-0.815-0.791
	c0-0.457,0.335-0.805,0.827-0.805C83.285,62.521,83.597,62.869,83.608,63.326z M82.038,70.798v-5.841h1.475v5.841H82.038z"/>
<path fill="#1E1E1E" d="M85.167,69.431c0.324,0.203,0.96,0.431,1.487,0.431c0.647,0,0.936-0.275,0.936-0.659
	c0-0.396-0.24-0.588-0.96-0.852c-1.139-0.384-1.606-1.007-1.606-1.703c0-1.031,0.852-1.823,2.207-1.823
	c0.647,0,1.211,0.156,1.559,0.349l-0.3,1.031c-0.24-0.144-0.72-0.336-1.235-0.336c-0.527,0-0.815,0.264-0.815,0.624
	c0,0.372,0.275,0.539,1.02,0.814c1.067,0.373,1.547,0.912,1.559,1.775c0,1.068-0.827,1.836-2.374,1.836
	c-0.708,0-1.344-0.168-1.775-0.408L85.167,69.431z"/>
<path fill="#1E1E1E" d="M94.461,70.618c-0.312,0.143-0.923,0.3-1.655,0.3c-1.822,0-3.01-1.176-3.01-2.986
	c0-1.752,1.199-3.107,3.25-3.107c0.54,0,1.092,0.121,1.428,0.265l-0.265,1.115c-0.239-0.12-0.587-0.228-1.115-0.228
	c-1.127,0-1.799,0.827-1.787,1.895c0,1.199,0.78,1.883,1.787,1.883c0.504,0,0.876-0.108,1.163-0.228L94.461,70.618z"/>
<path fill="#1E1E1E" d="M95.563,62.282h1.475v3.466h0.024c0.18-0.275,0.432-0.504,0.731-0.659c0.3-0.169,0.647-0.265,1.02-0.265
	c0.995,0,2.039,0.66,2.039,2.531v3.442h-1.476v-3.286c0-0.84-0.312-1.488-1.127-1.488c-0.576,0-0.984,0.385-1.151,0.828
	c-0.049,0.132-0.061,0.288-0.061,0.443v3.503h-1.475V62.282z"/>
<path fill="#1E1E1E" d="M103.333,68.291c0.036,1.056,0.852,1.511,1.799,1.511c0.684,0,1.163-0.108,1.619-0.264l0.216,1.007
	c-0.504,0.216-1.199,0.373-2.039,0.373c-1.895,0-3.01-1.164-3.01-2.951c0-1.619,0.983-3.143,2.854-3.143
	c1.895,0,2.519,1.56,2.519,2.843c0,0.276-0.024,0.492-0.048,0.624H103.333z M105.899,67.26c0.013-0.54-0.228-1.428-1.211-1.428
	c-0.912,0-1.296,0.828-1.355,1.428H105.899z"/>
<path fill="#1E1E1E" d="M108.585,66.84c0-0.792-0.013-1.367-0.049-1.883h1.271l0.061,1.104h0.036
	c0.287-0.816,0.971-1.236,1.606-1.236c0.145,0,0.229,0.012,0.348,0.037v1.378c-0.132-0.023-0.264-0.035-0.443-0.035
	c-0.695,0-1.188,0.443-1.319,1.115c-0.024,0.132-0.036,0.288-0.036,0.444v3.034h-1.475V66.84z"/>
<path fill="#1E1E1E" d="M115.814,62.714h1.463v3.718h0.036c0.192-0.312,0.396-0.6,0.588-0.875l2.123-2.843h1.811l-2.782,3.442
	l2.962,4.642h-1.727l-2.279-3.706l-0.731,0.863v2.843h-1.463V62.714z"/>
<path fill="#1E1E1E" d="M127.745,69.047c0,0.695,0.024,1.271,0.048,1.751h-1.283l-0.071-0.876h-0.036
	c-0.252,0.408-0.828,1.008-1.883,1.008c-1.056,0-2.027-0.636-2.027-2.543v-3.43h1.476v3.178c0,0.972,0.312,1.596,1.091,1.596
	c0.6,0,0.983-0.408,1.128-0.792c0.06-0.12,0.084-0.288,0.084-0.456v-3.525h1.475V69.047z"/>
<path fill="#1E1E1E" d="M129.26,62.282h1.475v8.516h-1.475V62.282z"/>
<path fill="#1E1E1E" d="M134.151,63.457v1.5h1.403v1.104h-1.403v2.578c0,0.719,0.192,1.079,0.756,1.079
	c0.264,0,0.407-0.012,0.575-0.06l0.024,1.115c-0.216,0.084-0.611,0.156-1.067,0.156c-0.552,0-0.995-0.18-1.271-0.48
	c-0.323-0.335-0.468-0.875-0.468-1.643v-2.746h-0.827v-1.104h0.827v-1.092L134.151,63.457z"/>
<path fill="#1E1E1E" d="M141.922,69.047c0,0.695,0.024,1.271,0.048,1.751h-1.283l-0.071-0.876h-0.036
	c-0.252,0.408-0.828,1.008-1.883,1.008c-1.056,0-2.027-0.636-2.027-2.543v-3.43h1.476v3.178c0,0.972,0.312,1.596,1.091,1.596
	c0.6,0,0.983-0.408,1.128-0.792c0.06-0.12,0.084-0.288,0.084-0.456v-3.525h1.475V69.047z"/>
<path fill="#1E1E1E" d="M143.433,66.84c0-0.792-0.013-1.367-0.049-1.883h1.271l0.061,1.104h0.036
	c0.287-0.816,0.971-1.236,1.606-1.236c0.145,0,0.229,0.012,0.348,0.037v1.378c-0.132-0.023-0.264-0.035-0.443-0.035
	c-0.695,0-1.188,0.443-1.319,1.115c-0.024,0.132-0.036,0.288-0.036,0.444v3.034h-1.475V66.84z"/>
<path fill="#1E1E1E" d="M147.94,66.84c0-0.792-0.013-1.367-0.049-1.883h1.271l0.061,1.104h0.036
	c0.287-0.816,0.971-1.236,1.606-1.236c0.145,0,0.229,0.012,0.348,0.037v1.378c-0.132-0.023-0.264-0.035-0.443-0.035
	c-0.695,0-1.188,0.443-1.319,1.115c-0.024,0.132-0.036,0.288-0.036,0.444v3.034h-1.475V66.84z"/>
<path fill="#1E1E1E" d="M156.778,69.394c0,0.528,0.023,1.044,0.096,1.404h-1.331l-0.108-0.647h-0.035
	c-0.349,0.455-0.96,0.779-1.728,0.779c-1.176,0-1.835-0.853-1.835-1.739c0-1.463,1.308-2.219,3.466-2.207v-0.096
	c0-0.384-0.155-1.02-1.188-1.02c-0.575,0-1.175,0.18-1.57,0.432l-0.288-0.96c0.432-0.263,1.188-0.516,2.11-0.516
	c1.871,0,2.411,1.188,2.411,2.471V69.394z M155.339,67.943c-1.043-0.012-2.039,0.203-2.039,1.091c0,0.576,0.372,0.84,0.84,0.84
	c0.6,0,1.02-0.384,1.163-0.804c0.036-0.107,0.036-0.216,0.036-0.323V67.943z"/>
<path fill="#1E1E1E" d="M163.324,69.047c0,0.695,0.024,1.271,0.048,1.751h-1.283l-0.071-0.876h-0.036
	c-0.252,0.408-0.828,1.008-1.883,1.008c-1.056,0-2.027-0.636-2.027-2.543v-3.43h1.476v3.178c0,0.972,0.312,1.596,1.091,1.596
	c0.6,0,0.983-0.408,1.128-0.792c0.06-0.12,0.084-0.288,0.084-0.456v-3.525h1.475V69.047z"/>
<path fill="#1E1E1E" d="M164.774,66.695c0-0.672-0.024-1.235-0.049-1.738h1.26l0.072,0.863h0.036
	c0.275-0.456,0.803-0.996,1.799-0.996c0.768,0,1.367,0.432,1.619,1.08h0.023c0.204-0.324,0.444-0.564,0.708-0.731
	c0.336-0.228,0.707-0.349,1.199-0.349c0.959,0,1.942,0.66,1.942,2.531v3.442h-1.438v-3.227c0-0.972-0.336-1.548-1.044-1.548
	c-0.504,0-0.875,0.36-1.031,0.78c-0.048,0.132-0.072,0.323-0.072,0.491v3.503h-1.438v-3.383c0-0.815-0.324-1.392-1.008-1.392
	c-0.552,0-0.924,0.433-1.067,0.828c-0.048,0.156-0.072,0.324-0.072,0.492v3.454h-1.438V66.695z"/>
<path fill="#1E1E1E" d="M172.651,19.242c-7.86,2.143-15.977,3.504-24.133,4.183c-4.081,0.331-8.178,0.474-12.266,0.375
	c-3.655-0.092-7.292-0.391-10.898-0.972c-0.316,0.504-0.704,0.95-1.165,1.333c3.942,0.815,7.971,1.274,11.988,1.497
	c4.161,0.226,8.33,0.205,12.487-0.007c8.315-0.442,16.595-1.572,24.731-3.529L172.651,19.242z"/>
<path fill="#1E1E1E" d="M153.968,29.621c-5.727,0.69-11.509,1.042-17.269,0.897c-2.881-0.08-5.756-0.285-8.586-0.714
	c-2.343-0.373-4.692-0.866-6.836-1.755c-0.275,0.429-0.641,0.833-1.047,1.203c2.428,1.164,5.026,1.775,7.596,2.263
	c2.914,0.529,5.851,0.82,8.791,0.984c5.879,0.316,11.762,0.123,17.613-0.413L153.968,29.621z"/>
<path fill="#1E1E1E" d="M122.091,34.219c-1.137-0.24-2.265-0.528-3.372-0.871c-0.887-0.279-1.751-0.603-2.576-0.978
	c-0.378,0.406-0.812,0.757-1.291,1.055c1.078,0.624,2.202,1.085,3.33,1.507c1.143,0.42,2.302,0.782,3.476,1.095
	c2.347,0.623,4.747,1.061,7.186,1.272l0.136-2.227C126.675,34.993,124.365,34.697,122.091,34.219z"/>
<path fill="#1E1E1E" d="M124.48,17.994c-0.244,1.61-1.08,3.159-2.309,4.228c-0.91,0.799-1.968,1.352-3.062,1.709
	c-0.171,1.942-1.118,3.81-2.546,5.087c-1.682,1.549-3.833,2.347-5.971,2.715c-0.123,0.332-0.271,0.665-0.443,0.972
	c-0.724,1.315-1.917,2.335-3.22,2.95c-1.204,0.59-2.531,0.884-3.797,0.994c-1.722,3.615-6.601,5.421-10.091,3.11
	c-1.009-0.688-1.782-1.695-2.15-2.876c-0.369-1.156-0.271-2.605,0.614-3.625c0.86-0.959,2.075-1.45,3.343-1.389
	c0.627,0.036,1.266,0.271,1.771,0.664c0.516,0.393,0.872,0.934,1.104,1.475l-0.896,0.406c-0.394-0.873-1.143-1.45-2.04-1.462
	c-0.884-0.038-1.843,0.405-2.385,1.069c-0.539,0.639-0.614,1.61-0.307,2.47c0.294,0.873,0.908,1.648,1.697,2.139
	c1.571,1.021,3.747,0.909,5.382-0.049c1.672-0.934,2.889-2.691,2.839-4.485c-0.012-0.898-0.307-1.782-0.812-2.57
	c-0.27-0.406-0.54-0.761-0.885-1.118c-0.307-0.32-0.663-0.578-1.069-0.811c-1.622-0.91-3.675-1.143-5.604-0.91
	c-3.933,0.466-7.436,2.838-9.672,6.12L81.6,33.013c2.778-3.663,7.153-6.342,11.837-6.625c2.323-0.136,4.743,0.221,6.834,1.523
	c0.515,0.333,1.007,0.727,1.438,1.205c0.382,0.43,0.762,0.946,1.058,1.45c0.613,1.033,1.02,2.274,0.982,3.528
	c-0.012,0.417-0.062,0.835-0.16,1.229c0.971-0.172,1.881-0.455,2.728-0.897c1.083-0.553,1.98-1.402,2.508-2.446
	c0.542-1.033,0.726-2.25,0.565-3.416c-0.146-1.193-0.676-2.213-1.45-3.16c-1.548-1.856-3.872-3.024-6.293-3.49
	c-2.433-0.467-4.989-0.271-7.448,0.332c-2.471,0.59-4.854,1.586-7.14,2.777c-2.262,1.192-4.475,2.667-6.784,4.057
	c-4.561,2.826-9.501,5.358-14.651,7.14l-1.116-3.294c4.977-1.561,9.658-3.785,14.244-6.439c2.297-1.291,4.57-2.729,7.078-3.909
	c2.481-1.192,5.102-2.15,7.854-2.704c2.729-0.542,5.618-0.675,8.408-0.013c2.776,0.64,5.455,2.103,7.25,4.437
	c0.443,0.579,0.834,1.205,1.131,1.905c0.307,0.688,0.467,1.451,0.553,2.176c0.062,0.664,0.05,1.34-0.061,2.004
	c1.744-0.443,3.391-1.204,4.619-2.408c1.427-1.353,2.152-3.319,1.93-5.237c-0.208-1.929-1.253-3.699-2.728-5.039
	c-1.474-1.363-3.318-2.347-5.247-3.022c-3.896-1.353-8.186-1.524-12.291-0.898c-2.064,0.32-4.092,0.837-6.06,1.537
	c-1.941,0.675-3.909,1.598-5.825,2.506c-3.848,1.857-7.62,3.958-11.541,5.863c-3.908,1.917-7.987,3.637-12.215,4.928
	c-8.383,2.594-17.208,3.502-25.872,3.479l0.406-3.957c8.308,0.233,16.603-0.418,24.555-2.631c4.069-1.118,8.026-2.643,11.91-4.412
	c3.884-1.77,7.718-3.761,11.699-5.543c2.003-0.884,3.982-1.746,6.122-2.458c2.113-0.688,4.301-1.204,6.513-1.499
	c4.413-0.566,9.009-0.295,13.251,1.278c2.112,0.798,4.141,1.917,5.812,3.527c1.683,1.585,2.924,3.774,3.108,6.169
	c0.8-0.332,1.524-0.786,2.14-1.364c0.971-0.897,1.56-2.078,1.756-3.429c0.186-1.364-0.122-2.631-0.675-3.859
	c-0.565-1.229-1.192-2.138-2.2-3.232c-0.897-0.971-1.783-1.623-2.545-2.114c-1.131-0.737-2.322-1.414-3.969-2.016
	c-2.666-0.995-5.642-1.635-9.329-1.635c-5.764,0-10.852,1.376-16.666,3.761c-5.346,2.188-10.446,5.371-15.866,7.854
	c-5.407,2.52-11.073,4.609-16.912,6.034c-5.85,1.426-11.785,2.262-17.76,2.705c-11.921,0.848-24.037,0.123-35.752-2.667l0.934-3.847
	c11.234,2.9,22.972,3.835,34.609,3.232c5.815-0.32,11.627-1.02,17.295-2.298c5.664-1.267,11.172-3.183,16.516-5.543
	c5.372-2.335,11.26-5.826,16.889-8.026c6.145-2.409,10.765-3.514,16.85-3.514c3.479,0,6.969,0.811,9.831,1.929
	c1.759,0.676,2.987,1.376,4.438,2.396c0.874,0.615,1.831,1.45,2.68,2.335c1.081,1.143,1.941,2.483,2.519,3.958
	C124.494,14.725,124.739,16.359,124.48,17.994z"/>
</svg>
